<svg width="100%" version="1.0" xmlns="http://www.w3.org/2000/svg"
							viewBox="0 0 1945.000000 577.000000" preserveAspectRatio="xMidYMid meet">

							<g transform="translate(0.000000,577.000000) scale(0.100000,-0.100000)" fill="#000000"
								stroke="none">
								<path d="M532 5634 c-154 -41 -281 -144 -353 -286 -63 -125 -59 47 -59 -2453
0 -2531 -5 -2330 67 -2468 71 -135 215 -247 364 -282 57 -13 761 -15 6150 -15
4854 0 6088 -3 6098 -12 11 -10 13 -10 7 0 -6 9 600 12 3016 12 3335 0 3071
-5 3208 63 88 43 194 151 238 240 67 136 64 -26 60 2477 -4 2113 -5 2269 -21
2324 -28 96 -76 176 -152 252 -80 81 -162 126 -270 149 -104 22 -18271 21
-18353 -1z m11428 -1113 c20 -6 25 -13 23 -37 -5 -71 -7 -72 -75 -67 -54 4
-67 2 -91 -17 -40 -32 -58 -73 -64 -151 l-6 -69 87 0 86 0 0 -50 0 -50 -85 0
-85 0 0 -310 0 -310 -65 0 -65 0 0 310 0 310 -50 0 -50 0 0 50 0 50 50 0 50 0
0 50 c0 181 102 301 254 299 33 -1 72 -4 86 -8z m-875 -533 l0 -528 -57 0 -58
0 0 62 0 62 -37 -44 c-52 -60 -120 -90 -208 -90 -123 0 -215 63 -272 185 -26
55 -28 69 -28 180 0 141 19 203 86 278 60 69 135 102 229 101 83 0 123 -15
178 -67 l32 -31 0 212 0 213 68 -3 67 -3 0 -527z m-2297 0 l-3 -523 -62 -3
-63 -3 0 526 0 525 65 0 65 0 -2 -522z m-4538 -193 l0 -695 -780 0 -780 0 0
583 0 584 693 97 c635 90 858 122 865 125 1 0 2 -312 2 -694z m1289 651 c160
-44 260 -135 312 -288 16 -49 21 -87 22 -168 0 -278 -120 -444 -370 -512 -65
-17 -106 -21 -250 -20 -94 0 -176 3 -182 7 -15 9 -15 971 -1 980 42 26 374 26
469 1z m-2959 -771 l0 -575 -595 0 -595 0 2 492 3 493 570 81 c314 45 580 82
593 83 l22 1 0 -575z m3875 498 c130 -45 215 -180 215 -343 0 -239 -152 -391
-379 -378 -142 9 -251 95 -292 230 -30 96 -24 229 12 308 79 171 263 247 444
183z m1870 -2 c22 -10 57 -36 77 -59 61 -67 68 -109 68 -399 l0 -253 -64 0
-65 0 -3 258 c-3 295 -7 308 -88 350 -78 40 -166 14 -221 -66 -23 -35 -24 -42
-29 -286 l-5 -251 -62 -3 -63 -3 0 299 c0 165 -3 327 -6 361 l-7 61 62 0 61 0
0 -57 0 -57 40 42 c85 88 195 111 305 63z m1087 3 c60 -19 142 -92 172 -153
60 -117 60 -274 1 -391 -31 -60 -109 -132 -170 -156 -77 -29 -224 -27 -289 5
-136 67 -208 222 -185 401 29 237 239 368 471 294z m706 6 c54 -14 102 -58
130 -119 29 -60 28 -54 34 -443 l3 -158 -57 0 c-56 0 -58 1 -59 28 0 15 -4 35
-8 45 -6 16 -9 15 -31 -9 -66 -71 -208 -96 -298 -53 -51 25 -97 89 -107 150
-18 105 54 216 167 257 63 23 161 42 222 42 l39 0 -7 47 c-7 54 -25 85 -63
110 -40 27 -163 24 -227 -5 -27 -12 -50 -22 -51 -22 -5 0 -25 62 -25 75 0 17
86 53 152 64 55 10 128 6 186 -9z m2260 -47 l3 -63 -41 0 c-61 0 -114 -32
-147 -87 l-28 -48 -3 -237 -3 -238 -65 0 -64 0 0 118 c0 65 -3 227 -7 360 l-6
242 61 0 62 0 0 -67 0 -67 29 46 c45 70 110 109 176 105 30 -2 30 -3 33 -64z
m495 52 c160 -42 250 -171 250 -360 0 -165 -72 -288 -202 -349 -38 -17 -65
-21 -151 -21 -95 0 -110 3 -155 27 -67 35 -118 90 -152 163 -26 55 -28 70 -28
175 0 103 3 121 26 171 77 163 239 239 412 194z m798 4 c47 -16 98 -56 121
-95 l19 -32 42 45 c74 81 162 108 260 79 43 -13 64 -26 96 -63 70 -78 77 -124
73 -466 l-2 -198 -62 3 -63 3 -5 255 c-3 160 -10 265 -17 281 -16 36 -68 77
-107 85 -39 7 -110 -20 -139 -54 -40 -45 -46 -87 -47 -334 l0 -238 -65 0 -65
0 0 248 c0 219 -3 252 -19 288 -52 114 -186 121 -258 13 l-28 -42 -5 -251 -5
-251 -62 -3 -63 -3 0 293 c0 161 -3 323 -7 361 l-6 67 62 0 61 0 0 -57 0 -57
36 42 c66 78 168 110 255 81z m-6745 -297 c66 -260 84 -320 84 -281 0 15 60
217 130 437 l42 133 55 -3 55 -3 55 -175 c30 -96 69 -228 87 -293 l33 -118 12
58 c7 32 42 165 78 296 l66 237 64 0 c35 0 63 -3 62 -7 0 -5 -51 -165 -113
-358 l-112 -350 -53 -3 c-30 -2 -57 0 -62 5 -10 10 -100 291 -144 448 l-33
120 -11 -45 c-6 -25 -46 -153 -89 -285 l-78 -240 -53 -3 c-30 -2 -58 1 -62 5
-5 5 -54 159 -109 343 -55 184 -103 343 -106 353 -5 16 1 18 62 15 l68 -3 72
-283z m-4346 -1477 c0 -541 -1 -575 -17 -575 -10 0 -274 36 -586 80 -313 44
-573 80 -578 80 -5 0 -9 207 -9 495 l0 495 595 0 595 0 0 -575z m1670 -120 l0
-696 -32 6 c-18 3 -355 50 -748 105 -393 56 -730 103 -747 106 l-33 6 0 584 0
584 780 0 780 0 0 -695z m3770 -140 l0 -525 -54 0 -54 0 -6 54 -7 54 -48 -48
c-105 -105 -272 -106 -382 -3 -60 56 -95 126 -109 221 -28 183 48 355 188 424
37 18 63 23 127 23 88 0 126 -14 183 -68 l32 -31 0 212 0 212 65 0 65 0 0
-525z m3790 307 l0 -219 44 42 c75 73 187 94 276 54 59 -26 86 -53 118 -114
l27 -50 3 -272 3 -273 -65 0 -66 0 0 233 c0 137 -5 248 -11 272 -39 141 -230
153 -306 20 -22 -38 -23 -50 -23 -282 l0 -243 -65 0 -65 0 0 525 0 525 65 0
65 0 0 -218z m3763 153 c26 -9 47 -20 47 -24 0 -8 -31 -101 -33 -101 -1 0 -31
9 -65 20 -132 41 -247 18 -290 -59 -24 -43 -27 -75 -11 -118 19 -50 52 -75
178 -135 69 -33 142 -73 163 -90 150 -118 122 -365 -52 -453 -106 -53 -281
-55 -400 -4 -28 12 -50 22 -50 23 0 1 7 26 16 55 12 43 18 51 32 46 121 -51
215 -66 290 -46 125 34 171 177 86 271 -30 34 -64 52 -214 118 -70 30 -126 77
-157 129 -24 41 -28 59 -28 123 0 57 6 85 22 116 36 68 110 123 190 144 55 14
220 5 276 -15z m-9160 -14 c27 -26 26 -86 0 -112 -28 -29 -87 -30 -114 -2 -24
24 -28 85 -8 109 31 37 87 39 122 5z m4980 -9 c107 -53 157 -135 157 -257 0
-88 -25 -152 -84 -210 -73 -73 -139 -97 -283 -103 l-113 -4 0 -194 0 -194 -65
0 -65 0 2 493 3 492 50 6 c28 4 113 6 190 5 137 -1 142 -2 208 -34z m-6279 11
c10 -33 144 -617 161 -703 25 -123 26 -123 46 -31 10 46 58 234 106 417 l87
334 68 0 67 0 10 -37 c29 -111 142 -602 158 -685 10 -54 21 -98 24 -98 3 0 14
39 24 88 14 69 118 480 176 695 l10 37 65 0 c62 0 64 -1 59 -22 -3 -13 -65
-234 -138 -493 l-132 -470 -70 0 -69 0 -63 260 c-57 239 -100 429 -118 530 -7
38 -8 36 -31 -64 -19 -86 -124 -482 -180 -678 l-15 -53 -67 0 -68 0 -122 488
c-68 268 -123 490 -122 495 0 4 29 7 64 7 53 0 66 -3 70 -17z m10826 -158 l0
-105 90 0 90 0 0 -50 0 -50 -91 0 -90 0 3 -236 3 -236 29 -25 c26 -22 37 -25
82 -21 l52 5 4 -49 c3 -54 2 -55 -75 -64 -113 -13 -195 39 -216 136 -6 28 -11
150 -11 270 l0 220 -55 0 -55 0 0 50 0 50 55 0 55 0 0 89 0 89 58 15 c31 8 60
15 65 16 4 1 7 -46 7 -104z m-8897 -99 c58 -21 105 -62 135 -119 l27 -52 3
-272 3 -273 -65 0 -66 0 0 243 c0 232 -1 245 -22 287 -43 84 -132 114 -216 71
-93 -48 -102 -78 -102 -366 l0 -235 -65 0 -65 0 0 318 c0 174 -3 334 -6 355
l-7 37 62 0 61 0 0 -57 1 -58 31 38 c66 81 194 117 291 83z m1618 -18 c106
-49 170 -140 191 -273 28 -179 -45 -336 -190 -407 -61 -30 -75 -33 -157 -33
-106 1 -158 20 -229 85 -170 157 -141 494 52 607 101 59 232 68 333 21z m1709
13 c60 -19 65 -31 41 -94 -11 -27 -11 -28 -42 -11 -18 9 -58 18 -89 21 -88 8
-140 -27 -140 -95 0 -46 33 -77 117 -112 137 -57 189 -108 200 -197 10 -90
-39 -178 -122 -214 -83 -37 -213 -34 -310 7 l-34 14 16 47 c9 27 17 49 18 50
1 2 21 -6 44 -18 85 -41 190 -38 235 8 31 31 36 95 10 132 -9 13 -60 44 -113
68 -142 66 -184 113 -184 208 0 56 12 85 52 128 67 73 184 96 301 58z m2551
-13 c105 -48 169 -140 191 -273 21 -127 -27 -284 -111 -357 -19 -17 -60 -43
-91 -57 -46 -22 -69 -26 -145 -26 -76 0 -98 4 -145 26 -136 64 -212 212 -196
381 15 164 100 277 242 322 73 23 185 16 255 -16z m770 20 c49 -14 114 -69
138 -117 32 -62 41 -145 41 -378 l0 -223 -64 0 -64 0 -4 243 c-3 236 -4 244
-28 291 -66 128 -236 111 -301 -29 -16 -35 -19 -68 -19 -272 l0 -233 -65 0
-65 0 0 355 0 355 54 0 53 0 7 -51 7 -51 35 36 c74 76 177 104 275 74z m745
-3 c101 -30 171 -122 194 -254 6 -36 9 -80 5 -98 l-6 -33 -250 0 -250 0 6 -37
c11 -65 52 -138 93 -167 69 -47 214 -55 316 -16 30 11 33 7 42 -48 l6 -41 -58
-17 c-84 -25 -242 -25 -314 0 -84 29 -162 112 -189 200 -51 166 -5 362 107
454 81 66 194 88 298 57z m2239 -14 c64 -28 138 -101 164 -161 89 -206 13
-444 -168 -528 -47 -22 -70 -27 -146 -27 -77 0 -98 4 -147 27 -135 63 -208
203 -195 373 13 170 112 298 261 336 56 15 177 4 231 -20z m695 -34 l0 -64
-44 0 c-76 0 -142 -56 -166 -142 -5 -20 -10 -132 -10 -248 l0 -213 -65 0 -65
0 0 339 c0 187 -3 346 -6 355 -5 14 3 16 54 16 l61 0 3 -67 3 -68 22 42 c37
68 104 111 176 112 l37 1 0 -63z m516 35 c55 -28 118 -102 139 -160 9 -26 19
-84 22 -129 l6 -83 -252 0 -251 0 0 -32 c0 -41 39 -126 71 -155 46 -42 98 -57
189 -56 49 1 103 8 129 17 24 9 45 16 46 16 2 0 25 -84 25 -93 0 -2 -28 -13
-62 -23 -43 -12 -97 -18 -168 -18 -100 -1 -109 1 -173 32 -139 69 -207 222
-178 400 25 152 111 260 241 303 46 15 171 4 216 -19z m-11466 -347 l0 -355
-65 0 -65 0 0 355 0 355 65 0 65 0 0 -355z m2631 313 c6 -24 40 -155 75 -293
34 -137 65 -243 68 -235 2 8 18 65 35 125 17 61 55 184 84 275 l53 165 56 3
57 3 35 -113 c45 -146 112 -371 126 -427 l12 -44 43 169 c50 190 110 403 118
410 2 3 31 4 64 2 l59 -3 -112 -350 -111 -350 -61 -3 -61 -3 -55 173 c-30 95
-67 216 -81 268 -15 52 -29 102 -32 110 -3 8 -20 -39 -38 -105 -18 -66 -58
-192 -89 -279 -31 -88 -56 -161 -56 -163 0 -2 -27 -3 -60 -3 l-59 0 -30 98
c-66 217 -181 601 -181 606 0 3 29 6 65 6 l64 0 12 -42z" />
								<path d="M10685 4076 c-42 -19 -90 -73 -112 -126 -22 -55 -24 -196 -4 -253 16
-47 63 -102 105 -124 78 -40 193 -8 243 69 26 38 28 51 32 156 4 123 -6 175
-42 224 -44 59 -152 85 -222 54z" />
								<path d="M5202 4352 c-9 -6 -12 -93 -10 -398 l3 -389 90 -3 c202 -7 332 53
403 185 40 76 56 163 50 272 -9 150 -67 244 -186 303 -64 32 -72 33 -202 36
-74 1 -141 -1 -148 -6z" />
								<path d="M6267 4090 c-87 -27 -147 -120 -155 -236 -8 -128 31 -225 112 -278
36 -24 49 -27 108 -24 57 3 73 8 105 34 83 67 120 201 89 323 -21 80 -48 125
-96 157 -41 27 -118 39 -163 24z" />
								<path d="M9216 4085 c-55 -19 -103 -70 -127 -134 -17 -46 -20 -72 -17 -146 3
-77 8 -98 33 -144 40 -73 99 -111 172 -111 130 0 214 103 216 265 1 129 -43
218 -127 260 -56 28 -93 31 -150 10z" />
								<path d="M10010 3816 c-109 -24 -153 -66 -154 -146 -2 -146 182 -173 271 -41
19 29 23 47 23 117 l0 84 -42 -1 c-24 0 -68 -6 -98 -13z" />
								<path d="M12738 4090 c-38 -7 -84 -32 -106 -59 -7 -9 -25 -41 -40 -71 -22 -46
-27 -69 -27 -140 0 -75 4 -92 30 -145 17 -33 47 -72 68 -90 35 -27 46 -30 112
-30 66 0 77 3 112 30 110 88 135 296 50 422 -46 68 -118 98 -199 83z" />
								<path d="M7648 2250 c-54 -16 -95 -50 -124 -102 -27 -50 -29 -60 -29 -163 0
-137 21 -190 94 -237 41 -26 53 -29 113 -26 57 3 73 8 105 34 62 49 77 92 81
221 3 102 1 117 -21 166 -27 59 -61 89 -122 106 -46 12 -59 13 -97 1z" />
								<path d="M11093 2523 c-23 -4 -23 -5 -23 -198 l0 -194 46 -7 c135 -20 267 41
294 137 47 161 -54 273 -243 268 -29 -1 -62 -4 -74 -6z" />
								<path d="M8421 2238 c-76 -38 -122 -132 -122 -252 0 -107 24 -170 90 -229 88
-80 214 -57 289 53 33 50 45 106 40 200 -5 89 -32 164 -75 202 -55 50 -151 61
-222 26z" />
								<path d="M12682 2239 c-82 -42 -123 -125 -125 -255 -1 -72 3 -89 31 -146 22
-45 44 -74 72 -93 81 -56 188 -40 255 38 101 118 81 367 -37 444 -56 37 -137
42 -196 12z" />
								<path d="M14244 2241 c-52 -32 -104 -113 -104 -162 0 -18 11 -19 186 -19 l187
0 -7 42 c-10 60 -45 118 -86 140 -47 24 -135 24 -176 -1z" />
								<path d="M16444 2241 c-101 -47 -155 -202 -120 -341 39 -153 160 -226 282
-171 166 75 183 394 26 501 -47 33 -132 38 -188 11z" />
								<path d="M17662 2243 c-18 -9 -44 -30 -58 -48 -21 -28 -54 -104 -54 -126 0 -5
83 -9 185 -9 l185 0 0 33 c0 46 -39 118 -79 144 -42 28 -129 31 -179 6z" />
								<path d="M14353 3 c812 -2 2142 -2 2955 0 812 1 147 2 -1478 2 -1625 0 -2290
-1 -1477 -2z" />
							</g>
						</svg>